<mxfile host="app.diagrams.net" agent="Mozilla/5.0 (Macintosh; Intel Mac OS X 10_15_7) AppleWebKit/537.36 (KHTML, like Gecko) Chrome/137.0.0.0 Safari/537.36 Edg/137.0.0.0" version="27.1.5">
  <diagram name="Page-1" id="jxJpjufu3x6XcI56HUoW">
    <mxGraphModel dx="1418" dy="794" grid="1" gridSize="10" guides="1" tooltips="1" connect="1" arrows="1" fold="1" page="1" pageScale="1" pageWidth="850" pageHeight="1100" math="0" shadow="0">
      <root>
        <mxCell id="0" />
        <mxCell id="1" parent="0" />
        <mxCell id="Xm_-t8C4Ap72i61oew-w-2" value="Export Request" style="edgeStyle=orthogonalEdgeStyle;rounded=0;orthogonalLoop=1;jettySize=auto;html=1;entryX=0;entryY=0.25;entryDx=0;entryDy=0;" parent="1" source="Xm_-t8C4Ap72i61oew-w-3" target="Xm_-t8C4Ap72i61oew-w-14" edge="1">
          <mxGeometry relative="1" as="geometry">
            <mxPoint x="360" y="100" as="targetPoint" />
            <mxPoint as="offset" />
          </mxGeometry>
        </mxCell>
        <mxCell id="Xm_-t8C4Ap72i61oew-w-3" value="Enduser&lt;div&gt;&lt;br&gt;&lt;/div&gt;" style="shape=umlActor;verticalLabelPosition=bottom;verticalAlign=top;html=1;outlineConnect=0;" parent="1" vertex="1">
          <mxGeometry x="20" y="70" width="30" height="60" as="geometry" />
        </mxCell>
        <mxCell id="Xm_-t8C4Ap72i61oew-w-4" style="edgeStyle=orthogonalEdgeStyle;rounded=0;orthogonalLoop=1;jettySize=auto;html=1;entryX=1;entryY=0.5;entryDx=0;entryDy=0;exitX=0.5;exitY=1;exitDx=0;exitDy=0;exitPerimeter=0;" parent="1" source="Xm_-t8C4Ap72i61oew-w-6" target="Xm_-t8C4Ap72i61oew-w-10" edge="1">
          <mxGeometry relative="1" as="geometry">
            <mxPoint x="649.9999999999998" y="279.9999999999999" as="targetPoint" />
            <Array as="points">
              <mxPoint x="800" y="160" />
              <mxPoint x="800" y="220" />
            </Array>
            <mxPoint x="789.9999999999998" y="220.0000000000001" as="sourcePoint" />
          </mxGeometry>
        </mxCell>
        <mxCell id="Xm_-t8C4Ap72i61oew-w-5" value="Retrieve data&lt;div&gt;(by user id)&lt;/div&gt;" style="edgeLabel;html=1;align=center;verticalAlign=middle;resizable=0;points=[];" parent="Xm_-t8C4Ap72i61oew-w-4" vertex="1" connectable="0">
          <mxGeometry x="0.3167" y="3" relative="1" as="geometry">
            <mxPoint x="15" y="-3" as="offset" />
          </mxGeometry>
        </mxCell>
        <mxCell id="Xm_-t8C4Ap72i61oew-w-6" value="Read Replica" style="shape=cylinder3;whiteSpace=wrap;html=1;boundedLbl=1;backgroundOutline=1;size=15;" parent="1" vertex="1">
          <mxGeometry x="770" y="70" width="60" height="80" as="geometry" />
        </mxCell>
        <mxCell id="Xm_-t8C4Ap72i61oew-w-7" value="Memberships Export Service" style="swimlane;whiteSpace=wrap;html=1;" parent="1" vertex="1">
          <mxGeometry x="280" y="20" width="400" height="490" as="geometry" />
        </mxCell>
        <mxCell id="Xm_-t8C4Ap72i61oew-w-8" value="Run export" style="rounded=0;whiteSpace=wrap;html=1;" parent="Xm_-t8C4Ap72i61oew-w-7" vertex="1">
          <mxGeometry x="250" y="60" width="120" height="60" as="geometry" />
        </mxCell>
        <mxCell id="Xm_-t8C4Ap72i61oew-w-9" value="" style="edgeStyle=orthogonalEdgeStyle;rounded=0;orthogonalLoop=1;jettySize=auto;html=1;" parent="Xm_-t8C4Ap72i61oew-w-7" source="Xm_-t8C4Ap72i61oew-w-10" target="Xm_-t8C4Ap72i61oew-w-12" edge="1">
          <mxGeometry relative="1" as="geometry" />
        </mxCell>
        <mxCell id="Xm_-t8C4Ap72i61oew-w-10" value="Generate Export csv" style="rounded=0;whiteSpace=wrap;html=1;" parent="Xm_-t8C4Ap72i61oew-w-7" vertex="1">
          <mxGeometry x="250" y="160" width="120" height="60" as="geometry" />
        </mxCell>
        <mxCell id="Xm_-t8C4Ap72i61oew-w-11" style="edgeStyle=orthogonalEdgeStyle;rounded=0;orthogonalLoop=1;jettySize=auto;html=1;" parent="Xm_-t8C4Ap72i61oew-w-7" source="Xm_-t8C4Ap72i61oew-w-12" edge="1">
          <mxGeometry relative="1" as="geometry">
            <mxPoint x="310" y="420" as="targetPoint" />
          </mxGeometry>
        </mxCell>
        <mxCell id="Xm_-t8C4Ap72i61oew-w-12" value="Upload to S3" style="whiteSpace=wrap;html=1;rounded=0;" parent="Xm_-t8C4Ap72i61oew-w-7" vertex="1">
          <mxGeometry x="250" y="300" width="120" height="60" as="geometry" />
        </mxCell>
        <mxCell id="Xm_-t8C4Ap72i61oew-w-13" value="Publish Email Event" style="whiteSpace=wrap;html=1;rounded=0;" parent="Xm_-t8C4Ap72i61oew-w-7" vertex="1">
          <mxGeometry x="250" y="420" width="120" height="60" as="geometry" />
        </mxCell>
        <mxCell id="Xm_-t8C4Ap72i61oew-w-14" value="Add to export queue" style="rounded=0;whiteSpace=wrap;html=1;" parent="Xm_-t8C4Ap72i61oew-w-7" vertex="1">
          <mxGeometry x="40" y="60" width="120" height="60" as="geometry" />
        </mxCell>
        <mxCell id="Xm_-t8C4Ap72i61oew-w-15" style="edgeStyle=orthogonalEdgeStyle;rounded=0;orthogonalLoop=1;jettySize=auto;html=1;entryX=0;entryY=0.5;entryDx=0;entryDy=0;" parent="Xm_-t8C4Ap72i61oew-w-7" source="Xm_-t8C4Ap72i61oew-w-16" target="Xm_-t8C4Ap72i61oew-w-8" edge="1">
          <mxGeometry relative="1" as="geometry" />
        </mxCell>
        <mxCell id="Xm_-t8C4Ap72i61oew-w-16" value="Export processor&amp;nbsp;" style="rounded=0;whiteSpace=wrap;html=1;" parent="Xm_-t8C4Ap72i61oew-w-7" vertex="1">
          <mxGeometry x="40" y="190" width="120" height="60" as="geometry" />
        </mxCell>
        <mxCell id="Xm_-t8C4Ap72i61oew-w-17" value="Control concurrency" style="ellipse;shape=cloud;whiteSpace=wrap;html=1;" parent="Xm_-t8C4Ap72i61oew-w-7" vertex="1">
          <mxGeometry x="15" y="270" width="170" height="80" as="geometry" />
        </mxCell>
        <mxCell id="Xm_-t8C4Ap72i61oew-w-18" style="edgeStyle=orthogonalEdgeStyle;rounded=0;orthogonalLoop=1;jettySize=auto;html=1;" parent="1" source="Xm_-t8C4Ap72i61oew-w-8" target="Xm_-t8C4Ap72i61oew-w-6" edge="1">
          <mxGeometry relative="1" as="geometry" />
        </mxCell>
        <mxCell id="Xm_-t8C4Ap72i61oew-w-19" value="Run sql query" style="edgeLabel;html=1;align=center;verticalAlign=middle;resizable=0;points=[];" parent="Xm_-t8C4Ap72i61oew-w-18" vertex="1" connectable="0">
          <mxGeometry x="-0.1937" y="-2" relative="1" as="geometry">
            <mxPoint x="17" y="-2" as="offset" />
          </mxGeometry>
        </mxCell>
        <mxCell id="Xm_-t8C4Ap72i61oew-w-20" style="edgeStyle=orthogonalEdgeStyle;rounded=0;orthogonalLoop=1;jettySize=auto;html=1;" parent="1" source="Xm_-t8C4Ap72i61oew-w-14" target="Xm_-t8C4Ap72i61oew-w-3" edge="1">
          <mxGeometry relative="1" as="geometry">
            <Array as="points">
              <mxPoint x="180" y="120" />
              <mxPoint x="180" y="120" />
            </Array>
            <mxPoint x="450" y="130" as="sourcePoint" />
          </mxGeometry>
        </mxCell>
        <mxCell id="Xm_-t8C4Ap72i61oew-w-21" value="Send success (Read Email)" style="edgeLabel;html=1;align=center;verticalAlign=middle;resizable=0;points=[];" parent="Xm_-t8C4Ap72i61oew-w-20" vertex="1" connectable="0">
          <mxGeometry x="0.0273" y="4" relative="1" as="geometry">
            <mxPoint as="offset" />
          </mxGeometry>
        </mxCell>
        <mxCell id="Xm_-t8C4Ap72i61oew-w-22" value="Create index on user id" style="ellipse;shape=cloud;whiteSpace=wrap;html=1;" parent="1" vertex="1">
          <mxGeometry x="700" width="110" height="70" as="geometry" />
        </mxCell>
        <mxCell id="Xm_-t8C4Ap72i61oew-w-23" value="" style="sketch=0;pointerEvents=1;shadow=0;dashed=0;html=1;strokeColor=none;fillColor=#DF8C42;labelPosition=center;verticalLabelPosition=bottom;verticalAlign=top;align=center;outlineConnect=0;shape=mxgraph.veeam2.aws_s3;" parent="1" vertex="1">
          <mxGeometry x="750" y="333" width="50" height="54" as="geometry" />
        </mxCell>
        <mxCell id="Xm_-t8C4Ap72i61oew-w-24" style="edgeStyle=orthogonalEdgeStyle;rounded=0;orthogonalLoop=1;jettySize=auto;html=1;" parent="1" source="Xm_-t8C4Ap72i61oew-w-12" target="Xm_-t8C4Ap72i61oew-w-23" edge="1">
          <mxGeometry relative="1" as="geometry" />
        </mxCell>
        <mxCell id="Xm_-t8C4Ap72i61oew-w-25" value="Email Service" style="swimlane;whiteSpace=wrap;html=1;" parent="1" vertex="1">
          <mxGeometry x="321.25" y="680" width="200" height="370" as="geometry" />
        </mxCell>
        <mxCell id="Xm_-t8C4Ap72i61oew-w-26" value="Email Request processor" style="rounded=0;whiteSpace=wrap;html=1;" parent="Xm_-t8C4Ap72i61oew-w-25" vertex="1">
          <mxGeometry x="40" y="60" width="120" height="60" as="geometry" />
        </mxCell>
        <mxCell id="Xm_-t8C4Ap72i61oew-w-27" style="edgeStyle=orthogonalEdgeStyle;rounded=0;orthogonalLoop=1;jettySize=auto;html=1;entryX=0.5;entryY=0;entryDx=0;entryDy=0;" parent="Xm_-t8C4Ap72i61oew-w-25" source="Xm_-t8C4Ap72i61oew-w-28" target="Xm_-t8C4Ap72i61oew-w-29" edge="1">
          <mxGeometry relative="1" as="geometry">
            <mxPoint x="100" y="420" as="targetPoint" />
          </mxGeometry>
        </mxCell>
        <mxCell id="Xm_-t8C4Ap72i61oew-w-28" value="Generate temporary S3 public url" style="whiteSpace=wrap;html=1;rounded=0;" parent="Xm_-t8C4Ap72i61oew-w-25" vertex="1">
          <mxGeometry x="40" y="160" width="120" height="60" as="geometry" />
        </mxCell>
        <mxCell id="Xm_-t8C4Ap72i61oew-w-29" value="Send email with link" style="whiteSpace=wrap;html=1;rounded=0;" parent="Xm_-t8C4Ap72i61oew-w-25" vertex="1">
          <mxGeometry x="40" y="300" width="120" height="60" as="geometry" />
        </mxCell>
        <mxCell id="Xm_-t8C4Ap72i61oew-w-30" style="edgeStyle=orthogonalEdgeStyle;rounded=0;orthogonalLoop=1;jettySize=auto;html=1;exitX=0.5;exitY=1;exitDx=0;exitDy=0;entryX=0.5;entryY=0;entryDx=0;entryDy=0;" parent="Xm_-t8C4Ap72i61oew-w-25" source="Xm_-t8C4Ap72i61oew-w-26" target="Xm_-t8C4Ap72i61oew-w-28" edge="1">
          <mxGeometry relative="1" as="geometry">
            <mxPoint x="99.75" y="150" as="targetPoint" />
            <mxPoint x="100" y="130" as="sourcePoint" />
          </mxGeometry>
        </mxCell>
        <mxCell id="Xm_-t8C4Ap72i61oew-w-31" value="" style="shape=cylinder3;whiteSpace=wrap;html=1;boundedLbl=1;backgroundOutline=1;size=15;rotation=-90;" parent="1" vertex="1">
          <mxGeometry x="382.5" y="492.5" width="60" height="250" as="geometry" />
        </mxCell>
        <mxCell id="Xm_-t8C4Ap72i61oew-w-32" value="Kafka (Email Request Queue)" style="text;html=1;align=center;verticalAlign=middle;whiteSpace=wrap;rounded=0;" parent="1" vertex="1">
          <mxGeometry x="332.5" y="602.5" width="177.5" height="30" as="geometry" />
        </mxCell>
        <mxCell id="Xm_-t8C4Ap72i61oew-w-33" style="edgeStyle=orthogonalEdgeStyle;rounded=0;orthogonalLoop=1;jettySize=auto;html=1;entryX=0.833;entryY=0.531;entryDx=0;entryDy=0;entryPerimeter=0;" parent="1" source="Xm_-t8C4Ap72i61oew-w-13" target="Xm_-t8C4Ap72i61oew-w-31" edge="1">
          <mxGeometry relative="1" as="geometry" />
        </mxCell>
        <mxCell id="Xm_-t8C4Ap72i61oew-w-34" style="edgeStyle=orthogonalEdgeStyle;rounded=0;orthogonalLoop=1;jettySize=auto;html=1;entryX=-0.067;entryY=0.528;entryDx=0;entryDy=0;entryPerimeter=0;" parent="1" source="Xm_-t8C4Ap72i61oew-w-26" target="Xm_-t8C4Ap72i61oew-w-31" edge="1">
          <mxGeometry relative="1" as="geometry" />
        </mxCell>
        <mxCell id="Xm_-t8C4Ap72i61oew-w-35" value="" style="sketch=0;pointerEvents=1;shadow=0;dashed=0;html=1;strokeColor=none;fillColor=#DF8C42;labelPosition=center;verticalLabelPosition=bottom;verticalAlign=top;align=center;outlineConnect=0;shape=mxgraph.veeam2.aws_s3;" parent="1" vertex="1">
          <mxGeometry x="560" y="823" width="50" height="54" as="geometry" />
        </mxCell>
        <mxCell id="Xm_-t8C4Ap72i61oew-w-36" style="edgeStyle=orthogonalEdgeStyle;rounded=0;orthogonalLoop=1;jettySize=auto;html=1;" parent="1" source="Xm_-t8C4Ap72i61oew-w-28" target="Xm_-t8C4Ap72i61oew-w-35" edge="1">
          <mxGeometry relative="1" as="geometry" />
        </mxCell>
        <mxCell id="Xm_-t8C4Ap72i61oew-w-37" style="edgeStyle=orthogonalEdgeStyle;rounded=0;orthogonalLoop=1;jettySize=auto;html=1;" parent="1" source="Xm_-t8C4Ap72i61oew-w-29" target="Xm_-t8C4Ap72i61oew-w-3" edge="1">
          <mxGeometry relative="1" as="geometry" />
        </mxCell>
        <mxCell id="Xm_-t8C4Ap72i61oew-w-38" value="Retrieve data" style="edgeLabel;html=1;align=center;verticalAlign=middle;resizable=0;points=[];" parent="Xm_-t8C4Ap72i61oew-w-37" vertex="1" connectable="0">
          <mxGeometry x="-0.8261" y="-1" relative="1" as="geometry">
            <mxPoint x="-86" y="1" as="offset" />
          </mxGeometry>
        </mxCell>
        <mxCell id="Xm_-t8C4Ap72i61oew-w-39" value="NestJS Throttler" style="ellipse;shape=cloud;whiteSpace=wrap;html=1;" parent="1" vertex="1">
          <mxGeometry x="115" y="20" width="120" height="60" as="geometry" />
        </mxCell>
        <mxCell id="Xm_-t8C4Ap72i61oew-w-40" value="UID, Header, S3 Link" style="ellipse;shape=cloud;whiteSpace=wrap;html=1;" parent="1" vertex="1">
          <mxGeometry x="550" y="575" width="180" height="85" as="geometry" />
        </mxCell>
        <mxCell id="Xm_-t8C4Ap72i61oew-w-41" value="" style="shape=cylinder3;whiteSpace=wrap;html=1;boundedLbl=1;backgroundOutline=1;size=15;rotation=-90;" parent="1" vertex="1">
          <mxGeometry x="120" y="158" width="60" height="175" as="geometry" />
        </mxCell>
        <mxCell id="Xm_-t8C4Ap72i61oew-w-42" value="Bull MQ (Export Queue)" style="text;html=1;align=center;verticalAlign=middle;whiteSpace=wrap;rounded=0;" parent="1" vertex="1">
          <mxGeometry x="80" y="230.5" width="160" height="30" as="geometry" />
        </mxCell>
        <mxCell id="Xm_-t8C4Ap72i61oew-w-43" style="edgeStyle=orthogonalEdgeStyle;rounded=0;orthogonalLoop=1;jettySize=auto;html=1;curved=1;" parent="1" source="Xm_-t8C4Ap72i61oew-w-14" edge="1">
          <mxGeometry relative="1" as="geometry">
            <mxPoint x="180" y="210" as="targetPoint" />
            <Array as="points">
              <mxPoint x="180" y="130" />
            </Array>
          </mxGeometry>
        </mxCell>
        <mxCell id="Xm_-t8C4Ap72i61oew-w-44" style="edgeStyle=orthogonalEdgeStyle;rounded=0;orthogonalLoop=1;jettySize=auto;html=1;" parent="1" source="Xm_-t8C4Ap72i61oew-w-16" target="Xm_-t8C4Ap72i61oew-w-42" edge="1">
          <mxGeometry relative="1" as="geometry" />
        </mxCell>
        <mxCell id="Xm_-t8C4Ap72i61oew-w-45" value="" style="outlineConnect=0;dashed=0;verticalLabelPosition=bottom;verticalAlign=top;align=center;html=1;shape=mxgraph.aws3.instance_with_cloudwatch;fillColor=#F58534;gradientColor=none;" parent="1" vertex="1">
          <mxGeometry x="130" y="510" width="60" height="63" as="geometry" />
        </mxCell>
        <mxCell id="Xm_-t8C4Ap72i61oew-w-46" value="CloudWatch" style="text;html=1;align=center;verticalAlign=middle;resizable=0;points=[];autosize=1;strokeColor=none;fillColor=none;" parent="1" vertex="1">
          <mxGeometry x="115" y="580" width="90" height="30" as="geometry" />
        </mxCell>
        <mxCell id="Xm_-t8C4Ap72i61oew-w-49" value="S3" style="text;html=1;align=center;verticalAlign=middle;resizable=0;points=[];autosize=1;strokeColor=none;fillColor=none;" parent="1" vertex="1">
          <mxGeometry x="750" y="388" width="40" height="30" as="geometry" />
        </mxCell>
        <mxCell id="Xm_-t8C4Ap72i61oew-w-52" value="S3" style="text;html=1;align=center;verticalAlign=middle;resizable=0;points=[];autosize=1;strokeColor=none;fillColor=none;" parent="1" vertex="1">
          <mxGeometry x="565" y="890" width="40" height="30" as="geometry" />
        </mxCell>
      </root>
    </mxGraphModel>
  </diagram>
</mxfile>
